<?xml version="1.0" encoding="UTF-8"?>
<!DOCTYPE svg PUBLIC "-//W3C//DTD SVG 1.1//EN" "http://www.w3.org/Graphics/SVG/1.1/DTD/svg11.dtd">
<svg xmlns="http://www.w3.org/2000/svg" version="1.1" width="142px" height="103px" style="shape-rendering:geometricPrecision; text-rendering:geometricPrecision; image-rendering:optimizeQuality; fill-rule:evenodd; clip-rule:evenodd" xmlns:xlink="http://www.w3.org/1999/xlink">
<g><path style="opacity:1" fill="#afe2f0" d="M 10.5,-0.5 C 30.1667,-0.5 49.8333,-0.5 69.5,-0.5C 67.8333,2.16667 66.1667,4.83333 64.5,7.5C 60.4862,7.66551 56.4862,7.49885 52.5,7C 50.5101,5.2494 48.1768,4.2494 45.5,4C 41.8484,3.50137 38.1817,3.3347 34.5,3.5C 33.8333,3.5 33.1667,3.5 32.5,3.5C 24.9328,2.71552 17.5995,1.38219 10.5,-0.5 Z"/></g>
<g><path style="opacity:1" fill="#bfe5f2" d="M 73.5,-0.5 C 86.1667,-0.5 98.8333,-0.5 111.5,-0.5C 108.372,0.631903 105.038,1.46524 101.5,2C 103.058,2.21003 104.391,2.71003 105.5,3.5C 99.7699,2.83155 94.4366,3.83155 89.5,6.5C 85.2172,7.49224 80.8839,7.82557 76.5,7.5C 76.3614,4.41209 75.3614,1.74542 73.5,-0.5 Z"/></g>
<g><path style="opacity:1" fill="#ebeff4" d="M 111.5,-0.5 C 121.5,-0.5 131.5,-0.5 141.5,-0.5C 141.5,2.5 141.5,5.5 141.5,8.5C 135.931,8.37603 130.598,9.04269 125.5,10.5C 120.576,7.52384 115.243,5.52384 109.5,4.5C 108.432,3.56552 107.099,3.23219 105.5,3.5C 104.391,2.71003 103.058,2.21003 101.5,2C 105.038,1.46524 108.372,0.631903 111.5,-0.5 Z"/></g>
<g><path style="opacity:1" fill="#b38059" d="M -0.5,-0.5 C 2.16667,-0.5 4.83333,-0.5 7.5,-0.5C 7.18729,4.35296 6.52062,9.01963 5.5,13.5C 5.5,12.1667 5.5,10.8333 5.5,9.5C 3.5,9.5 1.5,9.5 -0.5,9.5C -0.5,6.16667 -0.5,2.83333 -0.5,-0.5 Z"/></g>
<g><path style="opacity:1" fill="#e7e9ed" d="M 8.5,-0.5 C 9.16667,-0.5 9.83333,-0.5 10.5,-0.5C 17.5995,1.38219 24.9328,2.71552 32.5,3.5C 22.2413,6.44019 13.9079,12.1069 7.5,20.5C 8.23161,13.5244 8.56494,6.52436 8.5,-0.5 Z"/></g>
<g><path style="opacity:1" fill="#56b7f1" d="M 69.5,-0.5 C 70.8333,-0.5 72.1667,-0.5 73.5,-0.5C 75.3614,1.74542 76.3614,4.41209 76.5,7.5C 80.8839,7.82557 85.2172,7.49224 89.5,6.5C 94.4366,3.83155 99.7699,2.83155 105.5,3.5C 107.099,3.23219 108.432,3.56552 109.5,4.5C 104.703,4.12114 100.036,4.62114 95.5,6C 96.4158,6.27842 97.0825,6.77842 97.5,7.5C 94.6717,8.6553 92.0051,9.98863 89.5,11.5C 76.4957,11.6666 63.4957,11.4999 50.5,11C 45.1147,7.56078 39.448,6.72745 33.5,8.5C 32.1667,8.5 30.8333,8.5 29.5,8.5C 28.7109,8.21719 28.0442,7.71719 27.5,7C 29.9252,5.78739 32.2585,4.62073 34.5,3.5C 38.1817,3.3347 41.8484,3.50137 45.5,4C 48.1768,4.2494 50.5101,5.2494 52.5,7C 56.4862,7.49885 60.4862,7.66551 64.5,7.5C 66.1667,4.83333 67.8333,2.16667 69.5,-0.5 Z"/></g>
<g><path style="opacity:1" fill="#54a8e9" d="M 109.5,4.5 C 115.243,5.52384 120.576,7.52384 125.5,10.5C 128.831,13.9995 131.998,17.6662 135,21.5C 136.707,23.9088 137.54,26.5755 137.5,29.5C 135.281,27.4245 133.281,25.0912 131.5,22.5C 130.893,22.6236 130.56,22.9569 130.5,23.5C 129.728,22.3065 128.728,21.3065 127.5,20.5C 125.833,18.1667 123.833,16.1667 121.5,14.5C 119.365,12.9291 117.032,11.5957 114.5,10.5C 112.485,9.07619 110.152,8.40953 107.5,8.5C 104.375,7.52056 101.042,7.18723 97.5,7.5C 97.0825,6.77842 96.4158,6.27842 95.5,6C 100.036,4.62114 104.703,4.12114 109.5,4.5 Z"/></g>
<g><path style="opacity:1" fill="#e1e28c" d="M 97.5,7.5 C 101.042,7.18723 104.375,7.52056 107.5,8.5C 101.259,8.25246 95.2586,9.25246 89.5,11.5C 92.0051,9.98863 94.6717,8.6553 97.5,7.5 Z"/></g>
<g><path style="opacity:1" fill="#92684f" d="M -0.5,9.5 C 1.5,9.5 3.5,9.5 5.5,9.5C 5.5,10.8333 5.5,12.1667 5.5,13.5C 5.5,16.8333 5.5,20.1667 5.5,23.5C 4.83333,24.8333 4.16667,26.1667 3.5,27.5C 2.16667,27.5 0.833333,27.5 -0.5,27.5C -0.5,21.5 -0.5,15.5 -0.5,9.5 Z"/></g>
<g><path style="opacity:1" fill="#f9d726" d="M 114.5,10.5 C 117.032,11.5957 119.365,12.9291 121.5,14.5C 120.078,14.7086 118.745,15.2086 117.5,16C 117.833,16.3333 118.167,16.6667 118.5,17C 117.91,18.5095 117.244,20.0095 116.5,21.5C 114.098,21.0097 111.765,20.6764 109.5,20.5C 107.279,20.4387 106.946,21.1054 108.5,22.5C 104.513,22.6518 103.013,24.6518 104,28.5C 104.708,29.3805 105.542,30.0472 106.5,30.5C 108.127,31.9907 109.793,33.4907 111.5,35C 110.571,36.0769 109.904,37.2436 109.5,38.5C 108.5,38.5 107.5,38.5 106.5,38.5C 106.269,35.9368 104.935,34.2702 102.5,33.5C 101.294,30.8609 99.2942,30.0276 96.5,31C 94.8446,32.4443 94.178,34.2776 94.5,36.5C 93.0222,36.238 91.6888,36.5713 90.5,37.5C 89.3595,38.4255 89.3595,39.2588 90.5,40C 88.3808,40.3418 88.0474,41.1751 89.5,42.5C 88.8333,42.5 88.1667,42.5 87.5,42.5C 86.5514,41.8476 85.3847,41.5143 84,41.5C 81.9919,41.3068 80.4919,41.9735 79.5,43.5C 76.909,44.2543 75.0757,45.921 74,48.5C 73.1903,52.6895 73.6903,56.6895 75.5,60.5C 74.2126,59.4715 73.0459,59.8048 72,61.5C 69.7167,59.8821 68.2167,57.7154 67.5,55C 66.255,54.2086 64.9217,53.7086 63.5,53.5C 63.1667,53.5 62.8333,53.5 62.5,53.5C 58.7016,52.5166 54.7016,52.1832 50.5,52.5C 50.2291,54.3797 50.8958,55.713 52.5,56.5C 52.5,56.8333 52.5,57.1667 52.5,57.5C 45.8818,58.678 44.8818,56.678 49.5,51.5C 50.6401,49.2198 51.8068,46.8864 53,44.5C 54.9861,37.6251 53.1528,32.2918 47.5,28.5C 45.3828,25.0515 42.3828,22.7181 38.5,21.5C 35.5104,21.0412 32.6771,20.0412 30,18.5C 26.1915,19.4873 22.6915,21.1539 19.5,23.5C 18.5713,22.3112 18.238,20.9778 18.5,19.5C 19.1667,18.1667 20.1667,17.1667 21.5,16.5C 22.922,15.075 24.5887,14.075 26.5,13.5C 32.6879,11.5816 39.0212,11.0816 45.5,12C 47.2861,12.1962 48.6195,13.0295 49.5,14.5C 63.4881,15.6661 77.4881,15.8328 91.5,15C 93.2279,13.2745 95.2279,11.9411 97.5,11C 103.157,10.5006 108.824,10.3339 114.5,10.5 Z"/></g>
<g><path style="opacity:1" fill="#f3eb85" d="M 29.5,8.5 C 30.8333,8.5 32.1667,8.5 33.5,8.5C 31.3542,10.342 29.0209,12.0087 26.5,13.5C 24.5887,14.075 22.922,15.075 21.5,16.5C 21.5,15.5 21.5,14.5 21.5,13.5C 23.938,11.4654 26.6047,9.79872 29.5,8.5 Z"/></g>
<g><path style="opacity:1" fill="#f7e34e" d="M 89.5,11.5 C 95.2586,9.25246 101.259,8.25246 107.5,8.5C 110.152,8.40953 112.485,9.07619 114.5,10.5C 108.824,10.3339 103.157,10.5006 97.5,11C 95.2279,11.9411 93.2279,13.2745 91.5,15C 77.4881,15.8328 63.4881,15.6661 49.5,14.5C 48.6195,13.0295 47.2861,12.1962 45.5,12C 39.0212,11.0816 32.6879,11.5816 26.5,13.5C 29.0209,12.0087 31.3542,10.342 33.5,8.5C 39.448,6.72745 45.1147,7.56078 50.5,11C 63.4957,11.4999 76.4957,11.6666 89.5,11.5 Z"/></g>
<g><path style="opacity:1" fill="#f1e2d6" d="M 141.5,8.5 C 141.5,35.5 141.5,62.5 141.5,89.5C 139.219,89.9227 137.552,89.256 136.5,87.5C 139.987,77.3501 141.32,66.8501 140.5,56C 140.333,49.1667 140.167,42.3333 140,35.5C 139.76,33.1484 138.927,31.1484 137.5,29.5C 137.54,26.5755 136.707,23.9088 135,21.5C 131.998,17.6662 128.831,13.9995 125.5,10.5C 130.598,9.04269 135.931,8.37603 141.5,8.5 Z"/></g>
<g><path style="opacity:1" fill="#fbcf1d" d="M 121.5,14.5 C 123.833,16.1667 125.833,18.1667 127.5,20.5C 129.126,24.7498 130.459,29.0831 131.5,33.5C 131.667,47.1707 131.5,60.8374 131,74.5C 129.667,75.1667 128.667,76.1667 128,77.5C 127.449,69.7025 126.449,69.7025 125,77.5C 123.48,75.1655 121.98,75.3321 120.5,78C 121.833,79.8402 121.666,80.3402 120,79.5C 117.14,85.0973 115.473,84.764 115,78.5C 114.282,77.5494 113.449,77.3828 112.5,78C 114.378,79.9928 114.712,82.1595 113.5,84.5C 112.575,83.3595 111.741,83.3595 111,84.5C 110.612,83.572 109.945,82.9054 109,82.5C 104.901,88.14 99.7348,89.4733 93.5,86.5C 92.8333,85.5 92.1667,84.5 91.5,83.5C 91.1365,79.2676 89.1365,76.1009 85.5,74C 74.5,73.3333 63.5,73.3333 52.5,74C 50.6763,74.66 49.343,75.8267 48.5,77.5C 47.5,78.1667 46.5,78.8333 45.5,79.5C 45.2267,77.549 45.8934,76.049 47.5,75C 43.9265,72.8675 43.9265,71.3675 47.5,70.5C 47.3717,67.487 48.3717,64.987 50.5,63C 48.2112,61.0781 45.5445,59.7448 42.5,59C 43.1667,58 43.8333,57 44.5,56C 40.7745,55.2401 37.1078,55.4068 33.5,56.5C 31.3886,55.3954 30.0553,53.7288 29.5,51.5C 34.3846,54.4154 39.718,55.2488 45.5,54C 46.4709,52.5187 47.8042,51.6854 49.5,51.5C 44.8818,56.678 45.8818,58.678 52.5,57.5C 56.1667,57.5 59.8333,57.5 63.5,57.5C 63.5,56.1667 63.5,54.8333 63.5,53.5C 64.9217,53.7086 66.255,54.2086 67.5,55C 68.2167,57.7154 69.7167,59.8821 72,61.5C 73.0459,59.8048 74.2126,59.4715 75.5,60.5C 76.8333,61.5 78.1667,62.5 79.5,63.5C 84.011,69.8237 90.1777,73.4904 98,74.5C 104.167,75 107,72.1667 106.5,66C 105.93,58.255 102.263,52.4217 95.5,48.5C 93.8061,46.1394 91.8061,44.1394 89.5,42.5C 88.0474,41.1751 88.3808,40.3418 90.5,40C 89.3595,39.2588 89.3595,38.4255 90.5,37.5C 91.6888,36.5713 93.0222,36.238 94.5,36.5C 95.5,37.1667 96.5,37.8333 97.5,38.5C 98.6874,40.9754 100.687,41.9754 103.5,41.5C 103.273,43.9328 104.273,45.5994 106.5,46.5C 109.718,51.7439 112.718,51.7439 115.5,46.5C 114.957,45.1362 114.79,43.8029 115,42.5C 117.667,41.8333 120.333,41.1667 123,40.5C 124.087,37.3861 123.254,35.0528 120.5,33.5C 119.313,31.0246 117.313,30.0246 114.5,30.5C 114.727,28.0672 113.727,26.4006 111.5,25.5C 110.833,24.1667 109.833,23.1667 108.5,22.5C 106.946,21.1054 107.279,20.4387 109.5,20.5C 111.765,20.6764 114.098,21.0097 116.5,21.5C 117.244,20.0095 117.91,18.5095 118.5,17C 118.167,16.6667 117.833,16.3333 117.5,16C 118.745,15.2086 120.078,14.7086 121.5,14.5 Z"/></g>
<g><path style="opacity:1" fill="#ccb29e" d="M 7.5,-0.5 C 7.83333,-0.5 8.16667,-0.5 8.5,-0.5C 8.56494,6.52436 8.23161,13.5244 7.5,20.5C 7.06795,21.7095 6.40128,22.7095 5.5,23.5C 5.5,20.1667 5.5,16.8333 5.5,13.5C 6.52062,9.01963 7.18729,4.35296 7.5,-0.5 Z"/></g>
<g><path style="opacity:1" fill="#efedab" d="M 21.5,13.5 C 21.5,14.5 21.5,15.5 21.5,16.5C 20.1667,17.1667 19.1667,18.1667 18.5,19.5C 15.9255,22.6533 12.9255,25.3199 9.5,27.5C 11.6929,21.3055 15.6929,16.6388 21.5,13.5 Z"/></g>
<g><path style="opacity:1" fill="#f9e038" d="M 38.5,21.5 C 24.3588,20.8113 18.5254,27.4779 21,41.5C 21.6622,42.9839 22.4955,44.3172 23.5,45.5C 20.544,46.1371 17.544,46.6371 14.5,47C 13.7734,48.3988 13.2734,49.8988 13,51.5C 12.6667,50.5 12.3333,49.5 12,48.5C 11.8333,49.1667 11.6667,49.8333 11.5,50.5C 12.4303,52.1047 12.4303,53.6047 11.5,55C 14.028,56.0174 14.028,57.1841 11.5,58.5C 12.0736,60.0589 12.7402,61.5589 13.5,63C 12.1059,63.956 11.4393,65.2894 11.5,67C 11.7315,70.2038 11.7315,73.3705 11.5,76.5C 13.1938,78.5543 14.3605,80.8877 15,83.5C 15.9025,84.7014 17.0692,85.5348 18.5,86C 17.3595,86.7412 17.3595,87.5745 18.5,88.5C 17.7573,89.1818 17.0906,89.8485 16.5,90.5C 16.8333,91.1667 17.1667,91.8333 17.5,92.5C 13.4351,90.7671 10.7684,87.7671 9.5,83.5C 6.86371,64.8044 6.86371,46.1377 9.5,27.5C 12.9255,25.3199 15.9255,22.6533 18.5,19.5C 18.238,20.9778 18.5713,22.3112 19.5,23.5C 22.6915,21.1539 26.1915,19.4873 30,18.5C 32.6771,20.0412 35.5104,21.0412 38.5,21.5 Z"/></g>
<g><path style="opacity:1" fill="#cfcb4d" d="M 87.5,24.5 C 87.1583,23.6618 86.4916,23.3284 85.5,23.5C 87.2143,22.2616 89.2143,21.595 91.5,21.5C 91.5,22.5 91.5,23.5 91.5,24.5C 90.1667,24.5 88.8333,24.5 87.5,24.5 Z"/></g>
<g><path style="opacity:1" fill="#7fd365" d="M 108.5,22.5 C 109.833,23.1667 110.833,24.1667 111.5,25.5C 111.5,28.8333 109.833,30.5 106.5,30.5C 105.542,30.0472 104.708,29.3805 104,28.5C 103.013,24.6518 104.513,22.6518 108.5,22.5 Z"/></g>
<g><path style="opacity:1" fill="#56ade7" d="M 38.5,21.5 C 42.3828,22.7181 45.3828,25.0515 47.5,28.5C 49.5456,31.7841 49.8789,35.1174 48.5,38.5C 48.3263,30.5272 47.8263,30.5272 47,38.5C 46.7508,37.376 46.2508,36.376 45.5,35.5C 44.8589,36.9935 43.8589,37.9935 42.5,38.5C 44.5929,33.5839 42.9262,31.5839 37.5,32.5C 38.5081,27.3327 36.6748,25.666 32,27.5C 31.5065,29.1341 31.3398,30.8008 31.5,32.5C 26.3327,31.4919 24.666,33.3252 26.5,38C 28.1341,38.4935 29.8008,38.6602 31.5,38.5C 30.9078,41.6305 31.9078,43.9639 34.5,45.5C 35.5676,46.4345 36.901,46.7678 38.5,46.5C 38.5,47.5 38.5,48.5 38.5,49.5C 35.2693,50.7815 31.9359,50.7815 28.5,49.5C 26.246,48.8763 24.5794,47.543 23.5,45.5C 22.4955,44.3172 21.6622,42.9839 21,41.5C 18.5254,27.4779 24.3588,20.8113 38.5,21.5 Z"/></g>
<g><path style="opacity:1" fill="#a4bc7e" d="M 74.5,23.5 C 77.5,22.1667 80.5,22.1667 83.5,23.5C 82.5084,23.3284 81.8417,23.6618 81.5,24.5C 80.1667,25.8333 80.1667,27.1667 81.5,28.5C 81.5,28.8333 81.5,29.1667 81.5,29.5C 80.8333,29.5 80.1667,29.5 79.5,29.5C 79.5,27.5 79.5,25.5 79.5,23.5C 77.8333,23.5 76.1667,23.5 74.5,23.5 Z"/></g>
<g><path style="opacity:1" fill="#5fa6cc" d="M 55.5,21.5 C 57.4672,21.2606 59.3005,21.5939 61,22.5C 60.6813,24.7429 60.848,26.9095 61.5,29C 60.0039,29.5074 58.8373,29.0074 58,27.5C 57.2904,28.9733 56.1238,29.6399 54.5,29.5C 54.1936,26.6146 54.5269,23.9479 55.5,21.5 Z"/></g>
<g><path style="opacity:1" fill="#b9c570" d="M 57.5,23.5 C 59.337,23.6395 59.6704,24.3061 58.5,25.5C 57.7025,25.0431 57.3691,24.3764 57.5,23.5 Z"/></g>
<g><path style="opacity:1" fill="#4ca2d6" d="M 67.5,23.5 C 68.1667,23.5 68.5,23.8333 68.5,24.5C 67.88,26.9767 66.88,26.9767 65.5,24.5C 64.5713,25.6888 64.238,27.0222 64.5,28.5C 65.791,28.2627 66.791,28.596 67.5,29.5C 62.8415,29.9854 61.5081,28.152 63.5,24C 64.7932,23.51 66.1266,23.3433 67.5,23.5 Z"/></g>
<g><path style="opacity:1" fill="#e7d23b" d="M 81.5,24.5 C 82.8333,25.8333 82.8333,27.1667 81.5,28.5C 80.1667,27.1667 80.1667,25.8333 81.5,24.5 Z"/></g>
<g><path style="opacity:1" fill="#5ca5cc" d="M 83.5,23.5 C 83.9377,24.5063 84.6043,24.5063 85.5,23.5C 86.4916,23.3284 87.1583,23.6618 87.5,24.5C 86.1991,25.8845 86.1991,27.3845 87.5,29C 85.8853,29.0622 84.5519,29.2289 83.5,29.5C 82.8333,29.5 82.1667,29.5 81.5,29.5C 81.5,29.1667 81.5,28.8333 81.5,28.5C 82.8333,27.1667 82.8333,25.8333 81.5,24.5C 81.8417,23.6618 82.5084,23.3284 83.5,23.5 Z"/></g>
<g><path style="opacity:1" fill="#f2d43a" d="M 42.5,38.5 C 40.8333,38.5 39.1667,38.5 37.5,38.5C 38.0922,41.6305 37.0922,43.9639 34.5,45.5C 31.9078,43.9639 30.9078,41.6305 31.5,38.5C 29.8008,38.6602 28.1341,38.4935 26.5,38C 24.666,33.3252 26.3327,31.4919 31.5,32.5C 31.3398,30.8008 31.5065,29.1341 32,27.5C 36.6748,25.666 38.5081,27.3327 37.5,32.5C 42.9262,31.5839 44.5929,33.5839 42.5,38.5 Z"/></g>
<g><path style="opacity:1" fill="#8db49d" d="M 73.5,24.5 C 73.5,25.8333 73.5,27.1667 73.5,28.5C 71.4121,29.179 69.4121,29.5123 67.5,29.5C 66.791,28.596 65.791,28.2627 64.5,28.5C 64.238,27.0222 64.5713,25.6888 65.5,24.5C 66.88,26.9767 67.88,26.9767 68.5,24.5C 69.4345,23.4324 69.7678,22.099 69.5,20.5C 70.5,20.5 71.5,20.5 72.5,20.5C 72.2322,22.099 72.5655,23.4324 73.5,24.5 Z"/></g>
<g><path style="opacity:1" fill="#58a4d1" d="M 74.5,23.5 C 76.1667,23.5 77.8333,23.5 79.5,23.5C 79.5,25.5 79.5,27.5 79.5,29.5C 77.2646,29.7947 75.2646,29.4614 73.5,28.5C 73.5,27.1667 73.5,25.8333 73.5,24.5C 73.5,23.8333 73.8333,23.5 74.5,23.5 Z"/></g>
<g><path style="opacity:1" fill="#eed430" d="M 75.5,25.5 C 77.337,25.6395 77.6704,26.3061 76.5,27.5C 75.7025,27.0431 75.3691,26.3764 75.5,25.5 Z"/></g>
<g><path style="opacity:1" fill="#dcce48" d="M 55.5,21.5 C 59.9102,19.7673 63.9102,20.434 67.5,23.5C 66.1266,23.3433 64.7932,23.51 63.5,24C 61.5081,28.152 62.8415,29.9854 67.5,29.5C 69.4121,29.5123 71.4121,29.179 73.5,28.5C 75.2646,29.4614 77.2646,29.7947 79.5,29.5C 80.1667,29.5 80.8333,29.5 81.5,29.5C 82.1667,29.5 82.8333,29.5 83.5,29.5C 80.8411,29.9174 78.5078,30.9174 76.5,32.5C 76.6309,33.3764 76.2975,34.0431 75.5,34.5C 75.3309,33.6034 74.9976,32.6034 74.5,31.5C 73.7492,32.376 73.2492,33.376 73,34.5C 67.9332,32.7898 62.5998,31.7898 57,31.5C 56.0979,31.7432 55.2646,32.0766 54.5,32.5C 54.5,31.5 54.5,30.5 54.5,29.5C 56.1238,29.6399 57.2904,28.9733 58,27.5C 58.8373,29.0074 60.0039,29.5074 61.5,29C 60.848,26.9095 60.6813,24.7429 61,22.5C 59.3005,21.5939 57.4672,21.2606 55.5,21.5 Z"/></g>
<g><path style="opacity:1" fill="#61a9dc" d="M 102.5,33.5 C 102.5,36.8333 100.833,38.5 97.5,38.5C 96.5,37.8333 95.5,37.1667 94.5,36.5C 94.178,34.2776 94.8446,32.4443 96.5,31C 99.2942,30.0276 101.294,30.8609 102.5,33.5 Z"/></g>
<g><path style="opacity:1" fill="#f76c5e" d="M 114.5,30.5 C 117.313,30.0246 119.313,31.0246 120.5,33.5C 120.348,37.4866 118.348,38.9866 114.5,38C 111.914,35.506 111.914,33.006 114.5,30.5 Z"/></g>
<g><path style="opacity:1" fill="#81b1a0" d="M 76.5,32.5 C 80.1667,32.5 83.8333,32.5 87.5,32.5C 87.5,33.5 87.5,34.5 87.5,35.5C 85.2341,35.8588 83.4007,35.1922 82,33.5C 79.7875,34.7595 77.2875,35.4262 74.5,35.5C 71.7125,35.4262 69.2125,34.7595 67,33.5C 65.3023,34.733 63.3023,35.3996 61,35.5C 59.1667,35.3333 57.3333,35.1667 55.5,35C 54.7476,34.3292 54.4142,33.4959 54.5,32.5C 55.2646,32.0766 56.0979,31.7432 57,31.5C 62.5998,31.7898 67.9332,32.7898 73,34.5C 73.2492,33.376 73.7492,32.376 74.5,31.5C 74.9976,32.6034 75.3309,33.6034 75.5,34.5C 76.2975,34.0431 76.6309,33.3764 76.5,32.5 Z"/></g>
<g><path style="opacity:1" fill="#edb419" d="M 111.5,25.5 C 113.727,26.4006 114.727,28.0672 114.5,30.5C 111.914,33.006 111.914,35.506 114.5,38C 118.348,38.9866 120.348,37.4866 120.5,33.5C 123.254,35.0528 124.087,37.3861 123,40.5C 120.333,41.1667 117.667,41.8333 115,42.5C 114.79,43.8029 114.957,45.1362 115.5,46.5C 112.718,51.7439 109.718,51.7439 106.5,46.5C 111.757,45.4825 112.757,42.8158 109.5,38.5C 109.904,37.2436 110.571,36.0769 111.5,35C 109.793,33.4907 108.127,31.9907 106.5,30.5C 109.833,30.5 111.5,28.8333 111.5,25.5 Z"/></g>
<g><path style="opacity:1" fill="#6dc3ed" d="M 32.5,3.5 C 33.1667,3.5 33.8333,3.5 34.5,3.5C 32.2585,4.62073 29.9252,5.78739 27.5,7C 28.0442,7.71719 28.7109,8.21719 29.5,8.5C 26.6047,9.79872 23.938,11.4654 21.5,13.5C 15.6929,16.6388 11.6929,21.3055 9.5,27.5C 8.20695,28.842 7.37362,30.5087 7,32.5C 6.33333,47.8333 6.33333,63.1667 7,78.5C 7.37362,80.4913 8.20695,82.158 9.5,83.5C 10.7684,87.7671 13.4351,90.7671 17.5,92.5C 18.8333,93.5 20.1667,94.5 21.5,95.5C 21.0618,95.4346 20.7284,95.6012 20.5,96C 21.8228,96.8159 22.4894,97.9826 22.5,99.5C 18.0329,98.9325 14.0329,97.2658 10.5,94.5C 8.18882,91.3368 6.02216,88.0035 4,84.5C 2.26133,80.6891 1.42799,76.6891 1.5,72.5C 1.33345,59.8289 1.50012,47.1623 2,34.5C 2.43957,32.1341 2.93957,29.8008 3.5,27.5C 4.16667,26.1667 4.83333,24.8333 5.5,23.5C 6.40128,22.7095 7.06795,21.7095 7.5,20.5C 13.9079,12.1069 22.2413,6.44019 32.5,3.5 Z"/></g>
<g><path style="opacity:1" fill="#e2a61e" d="M 102.5,33.5 C 104.935,34.2702 106.269,35.9368 106.5,38.5C 105.167,39.1667 104.167,40.1667 103.5,41.5C 100.687,41.9754 98.6874,40.9754 97.5,38.5C 100.833,38.5 102.5,36.8333 102.5,33.5 Z"/></g>
<g><path style="opacity:1" fill="#e7ad1c" d="M 47.5,28.5 C 53.1528,32.2918 54.9861,37.6251 53,44.5C 51.8068,46.8864 50.6401,49.2198 49.5,51.5C 47.8042,51.6854 46.4709,52.5187 45.5,54C 39.718,55.2488 34.3846,54.4154 29.5,51.5C 28.6618,51.1583 28.3284,50.4916 28.5,49.5C 31.9359,50.7815 35.2693,50.7815 38.5,49.5C 44.5844,48.4127 47.9177,44.746 48.5,38.5C 49.8789,35.1174 49.5456,31.7841 47.5,28.5 Z"/></g>
<g><path style="opacity:1" fill="#59a6df" d="M 106.5,38.5 C 107.5,38.5 108.5,38.5 109.5,38.5C 112.757,42.8158 111.757,45.4825 106.5,46.5C 104.273,45.5994 103.273,43.9328 103.5,41.5C 104.167,40.1667 105.167,39.1667 106.5,38.5 Z"/></g>
<g><path style="opacity:1" fill="#93c6bd" d="M 87.5,42.5 C 84.7628,42.4013 82.0961,42.7347 79.5,43.5C 80.4919,41.9735 81.9919,41.3068 84,41.5C 85.3847,41.5143 86.5514,41.8476 87.5,42.5 Z"/></g>
<g><path style="opacity:1" fill="#4b9be2" d="M 48.5,38.5 C 47.9177,44.746 44.5844,48.4127 38.5,49.5C 38.5,48.5 38.5,47.5 38.5,46.5C 36.901,46.7678 35.5676,46.4345 34.5,45.5C 37.0922,43.9639 38.0922,41.6305 37.5,38.5C 39.1667,38.5 40.8333,38.5 42.5,38.5C 43.8589,37.9935 44.8589,36.9935 45.5,35.5C 46.2508,36.376 46.7508,37.376 47,38.5C 47.8263,30.5272 48.3263,30.5272 48.5,38.5 Z"/></g>
<g><path style="opacity:1" fill="#5daae2" d="M 87.5,42.5 C 88.1667,42.5 88.8333,42.5 89.5,42.5C 91.8061,44.1394 93.8061,46.1394 95.5,48.5C 96.6227,50.9787 96.6227,53.312 95.5,55.5C 93.614,51.3718 91.9473,51.0384 90.5,54.5C 90.2619,46.7593 86.7619,44.7593 80,48.5C 77.2583,55.6038 79.7583,58.9371 87.5,58.5C 86.3915,59.29 85.0581,59.79 83.5,60C 85.441,61.9028 87.7743,62.7361 90.5,62.5C 87.097,64.7145 83.4303,65.0478 79.5,63.5C 78.1667,62.5 76.8333,61.5 75.5,60.5C 73.6903,56.6895 73.1903,52.6895 74,48.5C 75.0757,45.921 76.909,44.2543 79.5,43.5C 82.0961,42.7347 84.7628,42.4013 87.5,42.5 Z"/></g>
<g><path style="opacity:1" fill="#e2ac32" d="M 127.5,20.5 C 128.728,21.3065 129.728,22.3065 130.5,23.5C 131.441,25.0495 132.107,26.7162 132.5,28.5C 134.567,44.0429 135.067,59.7095 134,75.5C 132.988,80.8468 130.321,85.1802 126,88.5C 125.517,89.448 125.351,90.448 125.5,91.5C 118.233,92.8235 110.9,93.4902 103.5,93.5C 101.847,93.3404 100.514,92.6737 99.5,91.5C 107.019,92.0165 114.353,91.1831 121.5,89C 124.359,86.4712 127.192,83.9712 130,81.5C 130.667,79.5 131.333,77.5 132,75.5C 132.827,61.3272 132.661,47.3272 131.5,33.5C 130.459,29.0831 129.126,24.7498 127.5,20.5 Z"/></g>
<g><path style="opacity:1" fill="#fcdb22" d="M 23.5,45.5 C 24.5794,47.543 26.246,48.8763 28.5,49.5C 28.3284,50.4916 28.6618,51.1583 29.5,51.5C 30.0553,53.7288 31.3886,55.3954 33.5,56.5C 37.1078,55.4068 40.7745,55.2401 44.5,56C 43.8333,57 43.1667,58 42.5,59C 45.5445,59.7448 48.2112,61.0781 50.5,63C 48.3717,64.987 47.3717,67.487 47.5,70.5C 43.9265,71.3675 43.9265,72.8675 47.5,75C 45.8934,76.049 45.2267,77.549 45.5,79.5C 42.0365,88.4172 35.3698,92.4172 25.5,91.5C 22.4825,91.2317 19.4825,90.8984 16.5,90.5C 17.0906,89.8485 17.7573,89.1818 18.5,88.5C 17.3595,87.5745 17.3595,86.7412 18.5,86C 17.0692,85.5348 15.9025,84.7014 15,83.5C 14.3605,80.8877 13.1938,78.5543 11.5,76.5C 11.7315,73.3705 11.7315,70.2038 11.5,67C 11.4393,65.2894 12.1059,63.956 13.5,63C 12.7402,61.5589 12.0736,60.0589 11.5,58.5C 14.028,57.1841 14.028,56.0174 11.5,55C 12.4303,53.6047 12.4303,52.1047 11.5,50.5C 11.6667,49.8333 11.8333,49.1667 12,48.5C 12.3333,49.5 12.6667,50.5 13,51.5C 13.2734,49.8988 13.7734,48.3988 14.5,47C 17.544,46.6371 20.544,46.1371 23.5,45.5 Z"/></g>
<g><path style="opacity:1" fill="#f8d029" d="M 90.5,54.5 C 90.2624,56.4044 89.2624,57.7377 87.5,58.5C 79.7583,58.9371 77.2583,55.6038 80,48.5C 86.7619,44.7593 90.2619,46.7593 90.5,54.5 Z"/></g>
<g><path style="opacity:1" fill="#daad56" d="M 132.5,28.5 C 133.793,29.842 134.626,31.5087 135,33.5C 135.667,48.1667 135.667,62.8333 135,77.5C 133.951,83.6969 130.785,88.3635 125.5,91.5C 125.351,90.448 125.517,89.448 126,88.5C 130.321,85.1802 132.988,80.8468 134,75.5C 135.067,59.7095 134.567,44.0429 132.5,28.5 Z"/></g>
<g><path style="opacity:1" fill="#507ecf" d="M 137.5,29.5 C 138.927,31.1484 139.76,33.1484 140,35.5C 140.167,42.3333 140.333,49.1667 140.5,56C 141.32,66.8501 139.987,77.3501 136.5,87.5C 133.86,90.8062 130.86,93.8062 127.5,96.5C 125.048,96.6132 122.382,96.2799 119.5,95.5C 121.5,94.1667 123.5,92.8333 125.5,91.5C 130.785,88.3635 133.951,83.6969 135,77.5C 135.667,62.8333 135.667,48.1667 135,33.5C 134.626,31.5087 133.793,29.842 132.5,28.5C 132.107,26.7162 131.441,25.0495 130.5,23.5C 130.56,22.9569 130.893,22.6236 131.5,22.5C 133.281,25.0912 135.281,27.4245 137.5,29.5 Z"/></g>
<g><path style="opacity:1" fill="#e7ded6" d="M -0.5,27.5 C 0.833333,27.5 2.16667,27.5 3.5,27.5C 2.93957,29.8008 2.43957,32.1341 2,34.5C 1.50012,47.1623 1.33345,59.8289 1.5,72.5C 0.833333,72.5 0.166667,72.5 -0.5,72.5C -0.5,57.5 -0.5,42.5 -0.5,27.5 Z"/></g>
<g><path style="opacity:1" fill="#52a8e7" d="M 62.5,53.5 C 62.5,54.5 62.5,55.5 62.5,56.5C 59.1667,56.5 55.8333,56.5 52.5,56.5C 50.8958,55.713 50.2291,54.3797 50.5,52.5C 54.7016,52.1832 58.7016,52.5166 62.5,53.5 Z"/></g>
<g><path style="opacity:1" fill="#417ad1" d="M 95.5,55.5 C 95.0195,58.8335 93.3528,61.1669 90.5,62.5C 87.7743,62.7361 85.441,61.9028 83.5,60C 85.0581,59.79 86.3915,59.29 87.5,58.5C 89.2624,57.7377 90.2624,56.4044 90.5,54.5C 91.9473,51.0384 93.614,51.3718 95.5,55.5 Z"/></g>
<g><path style="opacity:1" fill="#c6a54d" d="M 62.5,53.5 C 62.8333,53.5 63.1667,53.5 63.5,53.5C 63.5,54.8333 63.5,56.1667 63.5,57.5C 59.8333,57.5 56.1667,57.5 52.5,57.5C 52.5,57.1667 52.5,56.8333 52.5,56.5C 55.8333,56.5 59.1667,56.5 62.5,56.5C 62.5,55.5 62.5,54.5 62.5,53.5 Z"/></g>
<g><path style="opacity:1" fill="#e6aa1a" d="M 95.5,48.5 C 102.263,52.4217 105.93,58.255 106.5,66C 107,72.1667 104.167,75 98,74.5C 90.1777,73.4904 84.011,69.8237 79.5,63.5C 83.4303,65.0478 87.097,64.7145 90.5,62.5C 93.3528,61.1669 95.0195,58.8335 95.5,55.5C 96.6227,53.312 96.6227,50.9787 95.5,48.5 Z"/></g>
<g><path style="opacity:1" fill="#f9ea6a" d="M 9.5,27.5 C 6.86371,46.1377 6.86371,64.8044 9.5,83.5C 8.20695,82.158 7.37362,80.4913 7,78.5C 6.33333,63.1667 6.33333,47.8333 7,32.5C 7.37362,30.5087 8.20695,28.842 9.5,27.5 Z"/></g>
<g><path style="opacity:1" fill="#f7c623" d="M 131.5,33.5 C 132.661,47.3272 132.827,61.3272 132,75.5C 131.333,77.5 130.667,79.5 130,81.5C 127.192,83.9712 124.359,86.4712 121.5,89C 114.353,91.1831 107.019,92.0165 99.5,91.5C 96.8908,90.5569 94.8908,88.8903 93.5,86.5C 99.7348,89.4733 104.901,88.14 109,82.5C 109.945,82.9054 110.612,83.572 111,84.5C 111.741,83.3595 112.575,83.3595 113.5,84.5C 114.712,82.1595 114.378,79.9928 112.5,78C 113.449,77.3828 114.282,77.5494 115,78.5C 115.473,84.764 117.14,85.0973 120,79.5C 121.666,80.3402 121.833,79.8402 120.5,78C 121.98,75.3321 123.48,75.1655 125,77.5C 126.449,69.7025 127.449,69.7025 128,77.5C 128.667,76.1667 129.667,75.1667 131,74.5C 131.5,60.8374 131.667,47.1707 131.5,33.5 Z"/></g>
<g><path style="opacity:1" fill="#aad7f6" d="M -0.5,72.5 C 0.166667,72.5 0.833333,72.5 1.5,72.5C 1.42799,76.6891 2.26133,80.6891 4,84.5C 6.02216,88.0035 8.18882,91.3368 10.5,94.5C 6.8019,94.4476 3.13523,94.1143 -0.5,93.5C -0.5,86.5 -0.5,79.5 -0.5,72.5 Z"/></g>
<g><path style="opacity:1" fill="#f4c027" d="M 91.5,83.5 C 91.1667,83.5 90.8333,83.5 90.5,83.5C 90.2671,81.9382 89.6005,80.6049 88.5,79.5C 88.4894,77.9826 87.8228,76.8159 86.5,76C 73.7471,75.0744 61.0805,75.5744 48.5,77.5C 49.343,75.8267 50.6763,74.66 52.5,74C 63.5,73.3333 74.5,73.3333 85.5,74C 89.1365,76.1009 91.1365,79.2676 91.5,83.5 Z"/></g>
<g><path style="opacity:1" fill="#e2b03d" d="M 88.5,79.5 C 77.2128,78.377 65.8794,78.2103 54.5,79C 51.9329,82.003 49.2663,84.8363 46.5,87.5C 46.155,83.8849 46.8217,80.5516 48.5,77.5C 61.0805,75.5744 73.7471,75.0744 86.5,76C 87.8228,76.8159 88.4894,77.9826 88.5,79.5 Z"/></g>
<g><path style="opacity:1" fill="#4b82d3" d="M 88.5,79.5 C 89.6005,80.6049 90.2671,81.9382 90.5,83.5C 89.5,84.5 88.5,85.5 87.5,86.5C 87.0472,85.5416 86.3805,84.7083 85.5,84C 75.8333,83.3333 66.1667,83.3333 56.5,84C 52.636,89.0292 48.3027,93.5292 43.5,97.5C 37.1274,100.122 30.4607,101.122 23.5,100.5C 22.8333,100.5 22.5,100.167 22.5,99.5C 22.4894,97.9826 21.8228,96.8159 20.5,96C 20.7284,95.6012 21.0618,95.4346 21.5,95.5C 28.0306,96.0115 34.3639,95.1782 40.5,93C 42.9962,91.669 44.9962,89.8356 46.5,87.5C 49.2663,84.8363 51.9329,82.003 54.5,79C 65.8794,78.2103 77.2128,78.377 88.5,79.5 Z"/></g>
<g><path style="opacity:1" fill="#4798e5" d="M 90.5,83.5 C 90.8333,83.5 91.1667,83.5 91.5,83.5C 92.1667,84.5 92.8333,85.5 93.5,86.5C 94.8908,88.8903 96.8908,90.5569 99.5,91.5C 100.514,92.6737 101.847,93.3404 103.5,93.5C 104.167,94.1667 104.833,94.8333 105.5,95.5C 104.761,95.369 104.094,95.5357 103.5,96C 106.219,96.805 107.219,98.305 106.5,100.5C 106.167,100.5 105.833,100.5 105.5,100.5C 103.085,99.6948 100.751,98.6948 98.5,97.5C 93.8333,94.8333 90.1667,91.1667 87.5,86.5C 88.5,85.5 89.5,84.5 90.5,83.5 Z"/></g>
<g><path style="opacity:1" fill="#f6c72c" d="M 48.5,77.5 C 46.8217,80.5516 46.155,83.8849 46.5,87.5C 44.9962,89.8356 42.9962,91.669 40.5,93C 34.3639,95.1782 28.0306,96.0115 21.5,95.5C 20.1667,94.5 18.8333,93.5 17.5,92.5C 17.1667,91.8333 16.8333,91.1667 16.5,90.5C 19.4825,90.8984 22.4825,91.2317 25.5,91.5C 35.3698,92.4172 42.0365,88.4172 45.5,79.5C 46.5,78.8333 47.5,78.1667 48.5,77.5 Z"/></g>
<g><path style="opacity:1" fill="#a4d2f5" d="M 136.5,87.5 C 137.552,89.256 139.219,89.9227 141.5,89.5C 141.5,92.5 141.5,95.5 141.5,98.5C 136.305,98.8205 131.305,98.4872 126.5,97.5C 126.5,96.8333 126.833,96.5 127.5,96.5C 130.86,93.8062 133.86,90.8062 136.5,87.5 Z"/></g>
<g><path style="opacity:1" fill="#a5d2f6" d="M 87.5,86.5 C 90.1667,91.1667 93.8333,94.8333 98.5,97.5C 80.1667,98.8333 61.8333,98.8333 43.5,97.5C 48.3027,93.5292 52.636,89.0292 56.5,84C 66.1667,83.3333 75.8333,83.3333 85.5,84C 86.3805,84.7083 87.0472,85.5416 87.5,86.5 Z"/></g>
<g><path style="opacity:1" fill="#ca9e45" d="M 125.5,91.5 C 123.5,92.8333 121.5,94.1667 119.5,95.5C 114.833,95.5 110.167,95.5 105.5,95.5C 104.833,94.8333 104.167,94.1667 103.5,93.5C 110.9,93.4902 118.233,92.8235 125.5,91.5 Z"/></g>
<g><path style="opacity:1" fill="#3263c9" d="M 105.5,95.5 C 110.167,95.5 114.833,95.5 119.5,95.5C 122.382,96.2799 125.048,96.6132 127.5,96.5C 126.833,96.5 126.5,96.8333 126.5,97.5C 125.391,97.5569 124.391,97.8902 123.5,98.5C 118.025,100.283 112.359,100.949 106.5,100.5C 107.219,98.305 106.219,96.805 103.5,96C 104.094,95.5357 104.761,95.369 105.5,95.5 Z"/></g>
<g><path style="opacity:1" fill="#f2edf0" d="M -0.5,93.5 C 3.13523,94.1143 6.8019,94.4476 10.5,94.5C 14.0329,97.2658 18.0329,98.9325 22.5,99.5C 22.5,100.167 22.8333,100.5 23.5,100.5C 24.8333,101.167 26.1667,101.833 27.5,102.5C 18.1667,102.5 8.83333,102.5 -0.5,102.5C -0.5,99.5 -0.5,96.5 -0.5,93.5 Z"/></g>
<g><path style="opacity:1" fill="#70a4df" d="M 126.5,97.5 C 131.305,98.4872 136.305,98.8205 141.5,98.5C 141.5,99.8333 141.5,101.167 141.5,102.5C 137.167,102.5 132.833,102.5 128.5,102.5C 128.611,101.883 128.944,101.383 129.5,101C 126.949,100.998 124.949,100.164 123.5,98.5C 124.391,97.8902 125.391,97.5569 126.5,97.5 Z"/></g>
<g><path style="opacity:1" fill="#8199c8" d="M 43.5,97.5 C 61.8333,98.8333 80.1667,98.8333 98.5,97.5C 100.751,98.6948 103.085,99.6948 105.5,100.5C 105.5,101.167 105.5,101.833 105.5,102.5C 79.5,102.5 53.5,102.5 27.5,102.5C 26.1667,101.833 24.8333,101.167 23.5,100.5C 30.4607,101.122 37.1274,100.122 43.5,97.5 Z"/></g>
<g><path style="opacity:1" fill="#446aae" d="M 123.5,98.5 C 124.949,100.164 126.949,100.998 129.5,101C 128.944,101.383 128.611,101.883 128.5,102.5C 120.833,102.5 113.167,102.5 105.5,102.5C 105.5,101.833 105.5,101.167 105.5,100.5C 105.833,100.5 106.167,100.5 106.5,100.5C 112.359,100.949 118.025,100.283 123.5,98.5 Z"/></g>
</svg>
